<?xml version="1.0" encoding="utf-8"?>
<!-- Generator: Adobe Illustrator 23.0.1, SVG Export Plug-In . SVG Version: 6.00 Build 0)  -->
<!DOCTYPE svg PUBLIC "-//W3C//DTD SVG 1.1//EN" "http://www.w3.org/Graphics/SVG/1.1/DTD/svg11.dtd" [
	<!ENTITY ns_extend "http://ns.adobe.com/Extensibility/1.0/">
	<!ENTITY ns_ai "http://ns.adobe.com/AdobeIllustrator/10.0/">
	<!ENTITY ns_graphs "http://ns.adobe.com/Graphs/1.0/">
	<!ENTITY ns_vars "http://ns.adobe.com/Variables/1.0/">
	<!ENTITY ns_imrep "http://ns.adobe.com/ImageReplacement/1.0/">
	<!ENTITY ns_sfw "http://ns.adobe.com/SaveForWeb/1.0/">
	<!ENTITY ns_custom "http://ns.adobe.com/GenericCustomNamespace/1.0/">
	<!ENTITY ns_adobe_xpath "http://ns.adobe.com/XPath/1.0/">
]>
<svg version="1.1" id="Layer_1" xmlns:x="&ns_extend;" xmlns:i="&ns_ai;" xmlns:graph="&ns_graphs;"
	 xmlns="http://www.w3.org/2000/svg" xmlns:xlink="http://www.w3.org/1999/xlink" x="0px" y="0px" viewBox="0 0 55 48"
	 style="enable-background:new 0 0 55 48;" xml:space="preserve">
<style type="text/css">
	.st0{fill:#036C70;}
	.st1{fill:#37C6D0;}
	.st2{opacity:0.2;enable-background:new    ;}
	.st3{opacity:0.1;enable-background:new    ;}
	.st4{fill:#1A9BA1;}
	.st5{fill:#038387;}
	.st6{fill:#FFFFFF;}
</style>
<metadata>
	<sfw  xmlns="&ns_sfw;">
		<slices></slices>
		<sliceSourceBounds  bottomLeftOrigin="true" height="48" width="55" x="4" y="8"></sliceSourceBounds>
	</sfw>
</metadata>
<g id="_64">
	<path id="Ambient" class="st0" d="M52.7,48H15.3C14,48,13,47,13,45.7V18.3L34,11l21,10v24.7C55,47,54,48,52.7,48z"/>
	<path class="st1" d="M15.3,0h37.3C54,0,55,1,55,2.3l0,0V24l0,0H13l0,0V2.3C13,1,14,0,15.3,0L15.3,0z"/>
	<path class="st2" d="M29,12.3v26.3c0,0.1,0,0.3,0,0.4c-0.2,1.1-1.2,1.9-2.3,1.9H13V10h13.7C28,10,29,11,29,12.3
		C29,12.3,29,12.3,29,12.3z"/>
	<path class="st3" d="M30,12.3v24.3c0,1.8-1.5,3.3-3.3,3.3H13V9h13.7C28.5,9,30,10.5,30,12.3z"/>
	<path class="st2" d="M29,12.3v24.3c0,1.3-1,2.3-2.3,2.3c0,0,0,0,0,0H13V10h13.7C28,10,29,11,29,12.3C29,12.3,29,12.3,29,12.3z"/>
	<path class="st3" d="M28,12.3v24.3c0,1.3-1,2.3-2.3,2.3c0,0,0,0,0,0H13V10h12.7C27,10,28,11,28,12.3C28,12.3,28,12.3,28,12.3z"/>
	<rect x="37" y="30" class="st4" width="12" height="12"/>
	<circle class="st4" cx="43" cy="12" r="8"/>
	<circle class="st0" cx="43" cy="12" r="4"/>
	<path class="st5" d="M2.3,10h23.3c1.3,0,2.3,1,2.3,2.3v23.3c0,1.3-1,2.3-2.3,2.3H2.3C1,38,0,37,0,35.7V12.3C0,11,1,10,2.3,10z"/>
	<path class="st6" d="M18.7,18.9h-6.6V23h6.1v2.5h-6.1v6.1h-3V16.4h9.5L18.7,18.9z"/>
</g>
</svg>
